<?xml version="1.0" encoding="utf-8"?>
<!-- Generator: Adobe Illustrator 15.0.2, SVG Export Plug-In . SVG Version: 6.00 Build 0)  -->
<!DOCTYPE svg PUBLIC "-//W3C//DTD SVG 1.1//EN" "http://www.w3.org/Graphics/SVG/1.1/DTD/svg11.dtd">
<svg version="1.1" id="Layer_1" xmlns="http://www.w3.org/2000/svg" xmlns:xlink="http://www.w3.org/1999/xlink" x="0px" y="0px"
	 width="600px" height="400px" viewBox="0 0 600 400" enable-background="new 0 0 600 400" xml:space="preserve">
<g>
	<defs>
		<rect id="SVGID_1_" width="600" height="400"/>
	</defs>
	<clipPath id="SVGID_2_">
		<use xlink:href="#SVGID_1_"  overflow="visible"/>
	</clipPath>
	<g clip-path="url(#SVGID_2_)">
		<defs>
			<rect id="SVGID_3_" y="-200" width="600" height="600"/>
		</defs>
		<clipPath id="SVGID_4_">
			<use xlink:href="#SVGID_3_"  overflow="visible"/>
		</clipPath>
		<polyline clip-path="url(#SVGID_4_)" fill-rule="evenodd" clip-rule="evenodd" fill="#FFFFFF" points="0,400 600,400 600,0 0,0 		
			"/>
	</g>
	<g clip-path="url(#SVGID_2_)">
		<defs>
			<rect id="SVGID_5_" y="-200" width="600" height="600"/>
		</defs>
		<clipPath id="SVGID_6_">
			<use xlink:href="#SVGID_5_"  overflow="visible"/>
		</clipPath>
		<polyline clip-path="url(#SVGID_6_)" fill-rule="evenodd" clip-rule="evenodd" fill="#FFFFFF" points="62.79,384.25 
			580.31,384.25 580.31,11.81 62.79,11.81 		"/>
	</g>
	
		<line opacity="0.098" clip-path="url(#SVGID_2_)" fill="none" stroke="#000000" stroke-width="0.5" stroke-miterlimit="10" x1="62.79" y1="365.99" x2="580.31" y2="365.99"/>
	
		<line opacity="0.098" clip-path="url(#SVGID_2_)" fill="none" stroke="#000000" stroke-width="0.5" stroke-miterlimit="10" x1="62.79" y1="288.77" x2="580.31" y2="288.77"/>
	
		<line opacity="0.098" clip-path="url(#SVGID_2_)" fill="none" stroke="#000000" stroke-width="0.5" stroke-miterlimit="10" x1="62.79" y1="211.55" x2="580.31" y2="211.55"/>
	
		<line opacity="0.098" clip-path="url(#SVGID_2_)" fill="none" stroke="#000000" stroke-width="0.5" stroke-miterlimit="10" x1="62.79" y1="134.32" x2="580.31" y2="134.32"/>
	
		<line opacity="0.098" clip-path="url(#SVGID_2_)" fill="none" stroke="#000000" stroke-width="0.5" stroke-miterlimit="10" x1="62.79" y1="57.1" x2="580.31" y2="57.1"/>
	
		<line clip-path="url(#SVGID_2_)" fill="none" stroke="#000000" stroke-miterlimit="10" x1="62.79" y1="384.25" x2="580.31" y2="384.25"/>
	
		<line clip-path="url(#SVGID_2_)" fill="none" stroke="#000000" stroke-miterlimit="10" x1="62.79" y1="384.25" x2="62.79" y2="11.81"/>
	
		<line clip-path="url(#SVGID_2_)" fill="none" stroke="#000000" stroke-miterlimit="10" x1="62.79" y1="365.99" x2="70.55" y2="365.99"/>
	
		<line clip-path="url(#SVGID_2_)" fill="none" stroke="#000000" stroke-miterlimit="10" x1="62.79" y1="288.77" x2="70.55" y2="288.77"/>
	
		<line clip-path="url(#SVGID_2_)" fill="none" stroke="#000000" stroke-miterlimit="10" x1="62.79" y1="211.55" x2="70.55" y2="211.55"/>
	
		<line clip-path="url(#SVGID_2_)" fill="none" stroke="#000000" stroke-miterlimit="10" x1="62.79" y1="134.32" x2="70.55" y2="134.32"/>
	
		<line clip-path="url(#SVGID_2_)" fill="none" stroke="#000000" stroke-miterlimit="10" x1="62.79" y1="57.1" x2="70.55" y2="57.1"/>
	<g clip-path="url(#SVGID_2_)">
		<text transform="matrix(1 0 0 1 32.79 370.4902)" font-family="'Helvetica'" font-size="13">65.6</text>
	</g>
	<g clip-path="url(#SVGID_2_)">
		<text transform="matrix(1 0 0 1 32.79 293.2695)" font-family="'Helvetica'" font-size="13">65.8</text>
	</g>
	<g clip-path="url(#SVGID_2_)">
		<text transform="matrix(1 0 0 1 32.79 216.0498)" font-family="'Helvetica'" font-size="13">66.0</text>
	</g>
	<g clip-path="url(#SVGID_2_)">
		<text transform="matrix(1 0 0 1 32.79 138.8198)" font-family="'Helvetica'" font-size="13">66.2</text>
	</g>
	<g clip-path="url(#SVGID_2_)">
		<text transform="matrix(1 0 0 1 32.79 61.6001)" font-family="'Helvetica'" font-size="13">66.4</text>
	</g>
	<g clip-path="url(#SVGID_2_)">
		<text transform="matrix(-6.123234e-17 -1 1 -6.123234e-17 14.4004 232.0293)" font-family="'Helvetica'" font-size="17">Age (Ma)</text>
	</g>
	<path clip-path="url(#SVGID_2_)" fill-rule="evenodd" clip-rule="evenodd" d="M77.43,300.21c-2.21,0-4,1.79-4,4s1.79,4,4,4
		s4-1.79,4-4S79.64,300.21,77.43,300.21"/>
	<path clip-path="url(#SVGID_2_)" fill-rule="evenodd" clip-rule="evenodd" fill="#009AFA" d="M77.43,301.21c-1.65,0-3,1.34-3,3
		s1.35,3,3,3c1.66,0,3-1.34,3-3S79.09,301.21,77.43,301.21"/>
	<path clip-path="url(#SVGID_2_)" fill-rule="evenodd" clip-rule="evenodd" d="M118.12,280.13c-2.21,0-4,1.79-4,4s1.79,4,4,4
		s4-1.79,4-4S120.33,280.13,118.12,280.13"/>
	<path clip-path="url(#SVGID_2_)" fill-rule="evenodd" clip-rule="evenodd" fill="#009AFA" d="M118.12,281.13c-1.66,0-3,1.351-3,3
		c0,1.66,1.34,3,3,3c1.66,0,3-1.34,3-3C121.12,282.48,119.78,281.13,118.12,281.13"/>
	<path clip-path="url(#SVGID_2_)" fill-rule="evenodd" clip-rule="evenodd" d="M158.81,253.88c-2.21,0-4,1.79-4,4s1.79,4,4,4
		s4-1.79,4-4S161.02,253.88,158.81,253.88"/>
	<path clip-path="url(#SVGID_2_)" fill-rule="evenodd" clip-rule="evenodd" fill="#009AFA" d="M158.81,254.88c-1.66,0-3,1.34-3,3
		s1.34,3,3,3c1.65,0,3-1.34,3-3S160.46,254.88,158.81,254.88"/>
	<path clip-path="url(#SVGID_2_)" fill-rule="evenodd" clip-rule="evenodd" d="M199.49,250.02c-2.21,0-4,1.79-4,4
		c0,2.211,1.79,4,4,4c2.21,0,4-1.789,4-4C203.49,251.81,201.7,250.02,199.49,250.02"/>
	<path clip-path="url(#SVGID_2_)" fill-rule="evenodd" clip-rule="evenodd" fill="#009AFA" d="M199.49,251.02c-1.65,0-3,1.341-3,3
		c0,1.65,1.35,3,3,3c1.66,0,3-1.35,3-3C202.49,252.36,201.15,251.02,199.49,251.02"/>
	<path clip-path="url(#SVGID_2_)" fill-rule="evenodd" clip-rule="evenodd" d="M240.18,250.02c-2.21,0-4,1.79-4,4
		c0,2.211,1.79,4,4,4s4-1.789,4-4C244.18,251.81,242.39,250.02,240.18,250.02"/>
	<path clip-path="url(#SVGID_2_)" fill-rule="evenodd" clip-rule="evenodd" fill="#009AFA" d="M240.18,251.02c-1.66,0-3,1.341-3,3
		c0,1.65,1.34,3,3,3c1.66,0,3-1.35,3-3C243.18,252.36,241.84,251.02,240.18,251.02"/>
	<path clip-path="url(#SVGID_2_)" fill-rule="evenodd" clip-rule="evenodd" d="M280.86,249.25c-2.2,0-4,1.79-4,4c0,2.2,1.8,4,4,4
		c2.21,0,4-1.8,4-4C284.86,251.04,283.07,249.25,280.86,249.25"/>
	<path clip-path="url(#SVGID_2_)" fill-rule="evenodd" clip-rule="evenodd" fill="#009AFA" d="M280.86,250.25c-1.65,0-3,1.34-3,3
		c0,1.65,1.35,3,3,3c1.66,0,3-1.35,3-3C283.86,251.59,282.52,250.25,280.86,250.25"/>
	<path clip-path="url(#SVGID_2_)" fill-rule="evenodd" clip-rule="evenodd" d="M321.55,242.3c-2.21,0-4,1.79-4,4c0,2.2,1.79,4,4,4
		s4-1.8,4-4C325.55,244.09,323.76,242.3,321.55,242.3"/>
	<path clip-path="url(#SVGID_2_)" fill-rule="evenodd" clip-rule="evenodd" fill="#009AFA" d="M321.55,243.3c-1.66,0-3,1.34-3,3
		c0,1.65,1.34,3,3,3s3-1.35,3-3C324.55,244.64,323.21,243.3,321.55,243.3"/>
	<path clip-path="url(#SVGID_2_)" fill-rule="evenodd" clip-rule="evenodd" d="M362.24,239.98c-2.21,0-4,1.789-4,4
		c0,2.21,1.79,4,4,4s4-1.79,4-4C366.24,241.77,364.45,239.98,362.24,239.98"/>
	<path clip-path="url(#SVGID_2_)" fill-rule="evenodd" clip-rule="evenodd" fill="#009AFA" d="M362.24,240.98c-1.66,0-3,1.34-3,3
		c0,1.659,1.34,3,3,3c1.649,0,3-1.341,3-3C365.24,242.32,363.89,240.98,362.24,240.98"/>
	<path clip-path="url(#SVGID_2_)" fill-rule="evenodd" clip-rule="evenodd" d="M402.92,239.21c-2.21,0-4,1.79-4,4s1.79,4,4,4
		s4-1.79,4-4S405.13,239.21,402.92,239.21"/>
	<path clip-path="url(#SVGID_2_)" fill-rule="evenodd" clip-rule="evenodd" fill="#009AFA" d="M402.92,240.21c-1.65,0-3,1.34-3,3
		c0,1.65,1.35,3,3,3c1.66,0,3-1.35,3-3C405.92,241.55,404.58,240.21,402.92,240.21"/>
	<path clip-path="url(#SVGID_2_)" fill-rule="evenodd" clip-rule="evenodd" d="M443.61,238.43c-2.21,0-4,1.79-4,4s1.79,4,4,4
		s4-1.79,4-4S445.82,238.43,443.61,238.43"/>
	<path clip-path="url(#SVGID_2_)" fill-rule="evenodd" clip-rule="evenodd" fill="#009AFA" d="M443.61,239.43c-1.66,0-3,1.351-3,3
		c0,1.66,1.34,3,3,3c1.659,0,3-1.34,3-3C446.61,240.78,445.27,239.43,443.61,239.43"/>
	<path clip-path="url(#SVGID_2_)" fill-rule="evenodd" clip-rule="evenodd" d="M484.3,233.41c-2.21,0-4,1.8-4,4c0,2.21,1.79,4,4,4
		c2.2,0,4-1.79,4-4C488.3,235.21,486.5,233.41,484.3,233.41"/>
	<path clip-path="url(#SVGID_2_)" fill-rule="evenodd" clip-rule="evenodd" fill="#009AFA" d="M484.3,234.41c-1.66,0-3,1.35-3,3
		c0,1.66,1.34,3,3,3c1.65,0,3-1.34,3-3C487.3,235.76,485.95,234.41,484.3,234.41"/>
	<path clip-path="url(#SVGID_2_)" fill-rule="evenodd" clip-rule="evenodd" d="M524.98,184.38c-2.211,0-4,1.79-4,4s1.789,4,4,4
		c2.21,0,4-1.79,4-4S527.19,184.38,524.98,184.38"/>
	<path clip-path="url(#SVGID_2_)" fill-rule="evenodd" clip-rule="evenodd" fill="#009AFA" d="M524.98,185.38c-1.66,0-3,1.34-3,3
		c0,1.66,1.34,3,3,3c1.659,0,3-1.34,3-3C527.98,186.72,526.64,185.38,524.98,185.38"/>
	<path clip-path="url(#SVGID_2_)" fill-rule="evenodd" clip-rule="evenodd" d="M565.67,122.6c-2.21,0-4,1.79-4,4s1.79,4,4,4
		s4-1.79,4-4S567.88,122.6,565.67,122.6"/>
	<path clip-path="url(#SVGID_2_)" fill-rule="evenodd" clip-rule="evenodd" fill="#009AFA" d="M565.67,123.6c-1.66,0-3,1.34-3,3
		c0,1.66,1.34,3,3,3c1.65,0,3-1.34,3-3C568.67,124.94,567.32,123.6,565.67,123.6"/>
	
		<line clip-path="url(#SVGID_2_)" fill="none" stroke="#009AFA" stroke-miterlimit="10" x1="77.43" y1="362.13" x2="77.43" y2="246.3"/>
	
		<line clip-path="url(#SVGID_2_)" fill="none" stroke="#009AFA" stroke-miterlimit="10" x1="118.12" y1="310.78" x2="118.12" y2="257.49"/>
	
		<line clip-path="url(#SVGID_2_)" fill="none" stroke="#009AFA" stroke-miterlimit="10" x1="158.81" y1="335.1" x2="158.81" y2="180.66"/>
	
		<line clip-path="url(#SVGID_2_)" fill="none" stroke="#009AFA" stroke-miterlimit="10" x1="199.49" y1="278.34" x2="199.49" y2="229.69"/>
	
		<line clip-path="url(#SVGID_2_)" fill="none" stroke="#009AFA" stroke-miterlimit="10" x1="240.18" y1="311.93" x2="240.18" y2="196.1"/>
	
		<line clip-path="url(#SVGID_2_)" fill="none" stroke="#009AFA" stroke-miterlimit="10" x1="280.86" y1="287.99" x2="280.86" y2="218.5"/>
	
		<line clip-path="url(#SVGID_2_)" fill="none" stroke="#009AFA" stroke-miterlimit="10" x1="321.55" y1="315.79" x2="321.55" y2="176.8"/>
	
		<line clip-path="url(#SVGID_2_)" fill="none" stroke="#009AFA" stroke-miterlimit="10" x1="362.24" y1="269.85" x2="362.24" y2="218.11"/>
	
		<line clip-path="url(#SVGID_2_)" fill="none" stroke="#009AFA" stroke-miterlimit="10" x1="402.92" y1="276.8" x2="402.92" y2="209.61"/>
	
		<line clip-path="url(#SVGID_2_)" fill="none" stroke="#009AFA" stroke-miterlimit="10" x1="443.61" y1="373.71" x2="443.61" y2="111.16"/>
	
		<line clip-path="url(#SVGID_2_)" fill="none" stroke="#009AFA" stroke-miterlimit="10" x1="484.3" y1="262.9" x2="484.3" y2="211.93"/>
	
		<line clip-path="url(#SVGID_2_)" fill="none" stroke="#009AFA" stroke-miterlimit="10" x1="524.98" y1="230.85" x2="524.98" y2="145.91"/>
	
		<line clip-path="url(#SVGID_2_)" fill="none" stroke="#009AFA" stroke-miterlimit="10" x1="565.67" y1="230.85" x2="565.67" y2="22.35"/>
	
		<line clip-path="url(#SVGID_2_)" fill="none" stroke="#000000" stroke-width="0.75" stroke-miterlimit="10" x1="82.23" y1="362.13" x2="72.64" y2="362.13"/>
	
		<line clip-path="url(#SVGID_2_)" fill="none" stroke="#000000" stroke-width="0.75" stroke-miterlimit="10" x1="82.23" y1="246.3" x2="72.64" y2="246.3"/>
	
		<line clip-path="url(#SVGID_2_)" fill="none" stroke="#000000" stroke-width="0.75" stroke-miterlimit="10" x1="122.91" y1="310.78" x2="113.33" y2="310.78"/>
	
		<line clip-path="url(#SVGID_2_)" fill="none" stroke="#000000" stroke-width="0.75" stroke-miterlimit="10" x1="122.91" y1="257.49" x2="113.33" y2="257.49"/>
	
		<line clip-path="url(#SVGID_2_)" fill="none" stroke="#000000" stroke-width="0.75" stroke-miterlimit="10" x1="163.6" y1="335.1" x2="154.01" y2="335.1"/>
	
		<line clip-path="url(#SVGID_2_)" fill="none" stroke="#000000" stroke-width="0.75" stroke-miterlimit="10" x1="163.6" y1="180.66" x2="154.01" y2="180.66"/>
	
		<line clip-path="url(#SVGID_2_)" fill="none" stroke="#000000" stroke-width="0.75" stroke-miterlimit="10" x1="204.28" y1="278.34" x2="194.7" y2="278.34"/>
	
		<line clip-path="url(#SVGID_2_)" fill="none" stroke="#000000" stroke-width="0.75" stroke-miterlimit="10" x1="204.28" y1="229.69" x2="194.7" y2="229.69"/>
	
		<line clip-path="url(#SVGID_2_)" fill="none" stroke="#000000" stroke-width="0.75" stroke-miterlimit="10" x1="244.97" y1="311.93" x2="235.39" y2="311.93"/>
	
		<line clip-path="url(#SVGID_2_)" fill="none" stroke="#000000" stroke-width="0.75" stroke-miterlimit="10" x1="244.97" y1="196.1" x2="235.39" y2="196.1"/>
	
		<line clip-path="url(#SVGID_2_)" fill="none" stroke="#000000" stroke-width="0.75" stroke-miterlimit="10" x1="285.66" y1="287.99" x2="276.07" y2="287.99"/>
	
		<line clip-path="url(#SVGID_2_)" fill="none" stroke="#000000" stroke-width="0.75" stroke-miterlimit="10" x1="285.66" y1="218.5" x2="276.07" y2="218.5"/>
	
		<line clip-path="url(#SVGID_2_)" fill="none" stroke="#000000" stroke-width="0.75" stroke-miterlimit="10" x1="326.34" y1="315.79" x2="316.76" y2="315.79"/>
	
		<line clip-path="url(#SVGID_2_)" fill="none" stroke="#000000" stroke-width="0.75" stroke-miterlimit="10" x1="326.34" y1="176.8" x2="316.76" y2="176.8"/>
	
		<line clip-path="url(#SVGID_2_)" fill="none" stroke="#000000" stroke-width="0.75" stroke-miterlimit="10" x1="367.03" y1="269.85" x2="357.45" y2="269.85"/>
	
		<line clip-path="url(#SVGID_2_)" fill="none" stroke="#000000" stroke-width="0.75" stroke-miterlimit="10" x1="367.03" y1="218.11" x2="357.45" y2="218.11"/>
	
		<line clip-path="url(#SVGID_2_)" fill="none" stroke="#000000" stroke-width="0.75" stroke-miterlimit="10" x1="407.72" y1="276.8" x2="398.13" y2="276.8"/>
	
		<line clip-path="url(#SVGID_2_)" fill="none" stroke="#000000" stroke-width="0.75" stroke-miterlimit="10" x1="407.72" y1="209.61" x2="398.13" y2="209.61"/>
	
		<line clip-path="url(#SVGID_2_)" fill="none" stroke="#000000" stroke-width="0.75" stroke-miterlimit="10" x1="448.4" y1="373.71" x2="438.82" y2="373.71"/>
	
		<line clip-path="url(#SVGID_2_)" fill="none" stroke="#000000" stroke-width="0.75" stroke-miterlimit="10" x1="448.4" y1="111.16" x2="438.82" y2="111.16"/>
	
		<line clip-path="url(#SVGID_2_)" fill="none" stroke="#000000" stroke-width="0.75" stroke-miterlimit="10" x1="489.09" y1="262.9" x2="479.5" y2="262.9"/>
	
		<line clip-path="url(#SVGID_2_)" fill="none" stroke="#000000" stroke-width="0.75" stroke-miterlimit="10" x1="489.09" y1="211.93" x2="479.5" y2="211.93"/>
	
		<line clip-path="url(#SVGID_2_)" fill="none" stroke="#000000" stroke-width="0.75" stroke-miterlimit="10" x1="529.77" y1="230.85" x2="520.19" y2="230.85"/>
	
		<line clip-path="url(#SVGID_2_)" fill="none" stroke="#000000" stroke-width="0.75" stroke-miterlimit="10" x1="529.77" y1="145.91" x2="520.19" y2="145.91"/>
	
		<line clip-path="url(#SVGID_2_)" fill="none" stroke="#000000" stroke-width="0.75" stroke-miterlimit="10" x1="570.46" y1="230.85" x2="560.88" y2="230.85"/>
	
		<line clip-path="url(#SVGID_2_)" fill="none" stroke="#000000" stroke-width="0.75" stroke-miterlimit="10" x1="570.46" y1="22.35" x2="560.88" y2="22.35"/>
	<g clip-path="url(#SVGID_2_)">
		<defs>
			<rect id="SVGID_7_" x="62.79" y="11.81" width="517.52" height="372.44"/>
		</defs>
		<clipPath id="SVGID_8_">
			<use xlink:href="#SVGID_7_"  overflow="visible"/>
		</clipPath>
		<polyline opacity="0.6" clip-path="url(#SVGID_8_)" fill-rule="evenodd" clip-rule="evenodd" fill="#E36F47" points="
			77.43,294.21 118.12,294.21 158.81,294.21 199.49,294.21 240.18,294.21 280.86,294.21 321.55,294.21 362.24,294.21 402.92,294.21 
			443.61,294.21 484.3,294.21 524.98,294.21 565.67,294.21 565.67,250.87 524.98,250.87 484.3,250.87 443.61,250.87 402.92,250.87 
			362.24,250.87 321.55,250.87 280.86,250.87 240.18,250.87 199.49,250.87 158.81,250.87 118.12,250.87 77.43,250.87 		"/>
	</g>
	<polyline opacity="0" clip-path="url(#SVGID_2_)" fill="none" stroke="#E36F47" stroke-miterlimit="10" points="77.43,294.21 
		118.12,294.21 158.81,294.21 199.49,294.21 240.18,294.21 280.86,294.21 321.55,294.21 362.24,294.21 402.92,294.21 443.61,294.21 
		484.3,294.21 524.98,294.21 565.67,294.21 	"/>
	<polyline clip-path="url(#SVGID_2_)" fill="none" stroke="#000000" stroke-miterlimit="10" stroke-dasharray="1,2" points="
		77.43,268.73 118.12,268.73 158.81,268.73 199.49,268.73 240.18,268.73 280.86,268.73 321.55,268.73 362.24,268.73 402.92,268.73 
		443.61,268.73 484.3,268.73 524.98,268.73 565.67,268.73 	"/>
	<g clip-path="url(#SVGID_2_)">
		<defs>
			<rect id="SVGID_9_" y="-200" width="600" height="600"/>
		</defs>
		<clipPath id="SVGID_10_">
			<use xlink:href="#SVGID_9_"  overflow="visible"/>
		</clipPath>
		<polyline clip-path="url(#SVGID_10_)" fill-rule="evenodd" clip-rule="evenodd" fill="#FFFFFF" points="80.79,78.05 247.13,78.05 
			247.13,32.69 80.79,32.69 		"/>
	</g>
	<polyline clip-path="url(#SVGID_2_)" fill="none" stroke="#FFFFFF" stroke-miterlimit="10" points="80.79,78.05 247.13,78.05 
		247.13,32.69 80.79,32.69 80.79,78.05 	"/>
	<path clip-path="url(#SVGID_2_)" fill-rule="evenodd" clip-rule="evenodd" d="M107.79,41.81c-3.32,0-6,2.69-6,6s2.68,6,6,6
		c3.31,0,6-2.69,6-6S111.1,41.81,107.79,41.81"/>
	<path clip-path="url(#SVGID_2_)" fill-rule="evenodd" clip-rule="evenodd" fill="#009AFA" d="M107.79,42.81c-2.76,0-5,2.24-5,5
		c0,2.76,2.24,5,5,5c2.76,0,5-2.24,5-5C112.79,45.05,110.55,42.81,107.79,42.81"/>
	<g clip-path="url(#SVGID_2_)">
		<text transform="matrix(1 0 0 1 128.79 52.3101)" font-family="'Helvetica'" font-size="13">Observed ages</text>
	</g>
	<g clip-path="url(#SVGID_2_)">
		<defs>
			<rect id="SVGID_11_" y="-200" width="600" height="600"/>
		</defs>
		<clipPath id="SVGID_12_">
			<use xlink:href="#SVGID_11_"  overflow="visible"/>
		</clipPath>
		<polyline opacity="0.6" clip-path="url(#SVGID_12_)" fill-rule="evenodd" clip-rule="evenodd" fill="#E36F47" points="
			86.79,68.98 122.79,68.98 122.79,56.88 86.79,56.88 86.79,68.98 		"/>
	</g>
	
		<line opacity="0" clip-path="url(#SVGID_2_)" fill="none" stroke="#E36F47" stroke-miterlimit="10" x1="86.79" y1="56.88" x2="122.79" y2="56.88"/>
	<g clip-path="url(#SVGID_2_)">
		<text transform="matrix(1 0 0 1 128.79 67.4302)" font-family="'Helvetica'" font-size="13">Model interpretation</text>
	</g>
</g>
</svg>
