<?xml version="1.0" encoding="utf-8"?>
<!-- Generator: Adobe Illustrator 15.0.2, SVG Export Plug-In . SVG Version: 6.00 Build 0)  -->
<!DOCTYPE svg PUBLIC "-//W3C//DTD SVG 1.1//EN" "http://www.w3.org/Graphics/SVG/1.1/DTD/svg11.dtd">
<svg version="1.1" id="Layer_1" xmlns="http://www.w3.org/2000/svg" xmlns:xlink="http://www.w3.org/1999/xlink" x="0px" y="0px"
	 width="600px" height="400px" viewBox="0 0 600 400" enable-background="new 0 0 600 400" xml:space="preserve">
<g>
	<defs>
		<rect id="SVGID_1_" width="600" height="400"/>
	</defs>
	<clipPath id="SVGID_2_">
		<use xlink:href="#SVGID_1_"  overflow="visible"/>
	</clipPath>
	<g clip-path="url(#SVGID_2_)">
		<defs>
			<rect id="SVGID_3_" y="-200" width="600" height="600"/>
		</defs>
		<clipPath id="SVGID_4_">
			<use xlink:href="#SVGID_3_"  overflow="visible"/>
		</clipPath>
		<polyline clip-path="url(#SVGID_4_)" fill-rule="evenodd" clip-rule="evenodd" fill="#FFFFFF" points="0,400 600,400 600,0 0,0 		
			"/>
	</g>
	<g clip-path="url(#SVGID_2_)">
		<defs>
			<rect id="SVGID_5_" y="-200" width="600" height="600"/>
		</defs>
		<clipPath id="SVGID_6_">
			<use xlink:href="#SVGID_5_"  overflow="visible"/>
		</clipPath>
		<polyline clip-path="url(#SVGID_6_)" fill-rule="evenodd" clip-rule="evenodd" fill="#FFFFFF" points="46.06,360.12 
			580.31,360.12 580.31,11.81 46.06,11.81 		"/>
	</g>
	
		<line opacity="0.098" clip-path="url(#SVGID_2_)" fill="none" stroke="#000000" stroke-width="0.5" stroke-miterlimit="10" x1="66.37" y1="360.12" x2="66.37" y2="11.81"/>
	
		<line opacity="0.098" clip-path="url(#SVGID_2_)" fill="none" stroke="#000000" stroke-width="0.5" stroke-miterlimit="10" x1="177.37" y1="360.12" x2="177.37" y2="11.81"/>
	
		<line opacity="0.098" clip-path="url(#SVGID_2_)" fill="none" stroke="#000000" stroke-width="0.5" stroke-miterlimit="10" x1="288.38" y1="360.12" x2="288.38" y2="11.81"/>
	
		<line opacity="0.098" clip-path="url(#SVGID_2_)" fill="none" stroke="#000000" stroke-width="0.5" stroke-miterlimit="10" x1="399.39" y1="360.12" x2="399.39" y2="11.81"/>
	
		<line opacity="0.098" clip-path="url(#SVGID_2_)" fill="none" stroke="#000000" stroke-width="0.5" stroke-miterlimit="10" x1="510.4" y1="360.12" x2="510.4" y2="11.81"/>
	
		<line opacity="0.098" clip-path="url(#SVGID_2_)" fill="none" stroke="#000000" stroke-width="0.5" stroke-miterlimit="10" x1="46.06" y1="350.26" x2="580.31" y2="350.26"/>
	
		<line opacity="0.098" clip-path="url(#SVGID_2_)" fill="none" stroke="#000000" stroke-width="0.5" stroke-miterlimit="10" x1="46.06" y1="258.86" x2="580.31" y2="258.86"/>
	
		<line opacity="0.098" clip-path="url(#SVGID_2_)" fill="none" stroke="#000000" stroke-width="0.5" stroke-miterlimit="10" x1="46.06" y1="167.46" x2="580.31" y2="167.46"/>
	
		<line opacity="0.098" clip-path="url(#SVGID_2_)" fill="none" stroke="#000000" stroke-width="0.5" stroke-miterlimit="10" x1="46.06" y1="76.06" x2="580.31" y2="76.06"/>
	
		<line clip-path="url(#SVGID_2_)" fill="none" stroke="#000000" stroke-miterlimit="10" x1="46.06" y1="360.12" x2="580.31" y2="360.12"/>
	
		<line clip-path="url(#SVGID_2_)" fill="none" stroke="#000000" stroke-miterlimit="10" x1="46.06" y1="360.12" x2="46.06" y2="11.81"/>
	
		<line clip-path="url(#SVGID_2_)" fill="none" stroke="#000000" stroke-miterlimit="10" x1="66.37" y1="360.12" x2="66.37" y2="354.9"/>
	
		<line clip-path="url(#SVGID_2_)" fill="none" stroke="#000000" stroke-miterlimit="10" x1="177.37" y1="360.12" x2="177.37" y2="354.9"/>
	
		<line clip-path="url(#SVGID_2_)" fill="none" stroke="#000000" stroke-miterlimit="10" x1="288.38" y1="360.12" x2="288.38" y2="354.9"/>
	
		<line clip-path="url(#SVGID_2_)" fill="none" stroke="#000000" stroke-miterlimit="10" x1="399.39" y1="360.12" x2="399.39" y2="354.9"/>
	
		<line clip-path="url(#SVGID_2_)" fill="none" stroke="#000000" stroke-miterlimit="10" x1="510.4" y1="360.12" x2="510.4" y2="354.9"/>
	
		<line clip-path="url(#SVGID_2_)" fill="none" stroke="#000000" stroke-miterlimit="10" x1="46.06" y1="350.26" x2="54.07" y2="350.26"/>
	
		<line clip-path="url(#SVGID_2_)" fill="none" stroke="#000000" stroke-miterlimit="10" x1="46.06" y1="258.86" x2="54.07" y2="258.86"/>
	
		<line clip-path="url(#SVGID_2_)" fill="none" stroke="#000000" stroke-miterlimit="10" x1="46.06" y1="167.46" x2="54.07" y2="167.46"/>
	
		<line clip-path="url(#SVGID_2_)" fill="none" stroke="#000000" stroke-miterlimit="10" x1="46.06" y1="76.06" x2="54.07" y2="76.06"/>
	<g clip-path="url(#SVGID_2_)">
		<text transform="matrix(1 0 0 1 54.3701 373.9199)" font-family="'Helvetica'" font-size="13">65.5</text>
	</g>
	<g clip-path="url(#SVGID_2_)">
		<text transform="matrix(1 0 0 1 165.3701 373.9199)" font-family="'Helvetica'" font-size="13">65.6</text>
	</g>
	<g clip-path="url(#SVGID_2_)">
		<text transform="matrix(1 0 0 1 276.3799 373.9199)" font-family="'Helvetica'" font-size="13">65.7</text>
	</g>
	<g clip-path="url(#SVGID_2_)">
		<text transform="matrix(1 0 0 1 387.3896 373.9199)" font-family="'Helvetica'" font-size="13">65.8</text>
	</g>
	<g clip-path="url(#SVGID_2_)">
		<text transform="matrix(1 0 0 1 498.4004 373.9199)" font-family="'Helvetica'" font-size="13">65.9</text>
	</g>
	<g clip-path="url(#SVGID_2_)">
		<text transform="matrix(1 0 0 1 34.0601 354.7598)" font-family="'Helvetica'" font-size="13">0</text>
	</g>
	<g clip-path="url(#SVGID_2_)">
		<text transform="matrix(1 0 0 1 34.0601 263.3604)" font-family="'Helvetica'" font-size="13">2</text>
	</g>
	<g clip-path="url(#SVGID_2_)">
		<text transform="matrix(1 0 0 1 34.0601 171.96)" font-family="'Helvetica'" font-size="13">4</text>
	</g>
	<g clip-path="url(#SVGID_2_)">
		<text transform="matrix(1 0 0 1 34.0601 80.5601)" font-family="'Helvetica'" font-size="13">6</text>
	</g>
	<g clip-path="url(#SVGID_2_)">
		<text transform="matrix(1 0 0 1 298.6899 397.5996)" font-family="'Helvetica'" font-size="17">Age</text>
	</g>
	<g clip-path="url(#SVGID_2_)">
		<text transform="matrix(-6.123234e-17 -1 1 -6.123234e-17 14.3994 253.4707)" font-family="'Helvetica'" font-size="17">Probability density</text>
	</g>
	<polyline clip-path="url(#SVGID_2_)" fill="none" stroke="#009AFA" stroke-miterlimit="10" points="61.18,350.26 81.55,350.26 
		117.18,350.26 137.55,350.26 142.64,350.26 157.91,350.26 163,350.26 168.09,350.25 173.18,350.26 178.28,350.26 183.37,350.26 
		188.46,350.26 193.55,350.25 198.64,350.26 203.73,350.26 208.82,350.26 213.91,350.23 219,350.23 224.09,350.24 229.19,350.23 
		234.28,350.23 239.37,350.23 244.46,350.21 249.55,350.21 254.64,350.22 259.73,350.2 264.82,350.2 269.91,350.15 275,350.06 
		280.1,350.03 285.19,350.01 290.28,349.94 295.37,349.87 300.46,349.72 305.55,349.64 310.64,349.42 315.73,349.06 320.82,348.84 
		325.92,348.42 331.01,347.84 336.1,347.25 341.19,345.85 346.28,344.3 351.37,342.82 356.46,341.6 361.55,340.32 366.64,337.92 
		371.73,335.52 376.83,331.97 381.92,328.23 387.01,323.31 392.1,316.8 397.19,309.7 402.28,300.42 407.37,288.58 412.46,257.17 
		417.55,218.9 422.65,199.59 427.74,181.24 432.83,162.8 437.92,141.96 443.01,126.67 448.1,106.48 453.19,92.71 458.28,77.93 
		463.37,66.43 468.46,54.58 473.56,41.33 478.65,31.33 483.74,21.67 488.83,108.78 493.92,170.11 499.01,207.14 504.1,281.47 
		509.19,297.89 514.28,313.14 519.38,326 524.47,340.52 529.56,344.48 534.65,348.18 539.74,349.4 544.83,349.8 549.92,350.05 
		555.01,350.19 560.1,350.26 565.19,350.26 	"/>
	<polyline clip-path="url(#SVGID_2_)" fill="none" stroke="#E36F47" stroke-miterlimit="10" points="61.18,350.26 81.55,350.26 
		117.18,350.26 137.55,350.26 142.64,350.26 157.91,350.26 163,350.25 168.09,350.25 173.18,350.25 178.28,350.25 183.37,350.24 
		188.46,350.24 193.55,350.23 198.64,350.23 203.73,350.22 208.82,350.21 213.91,350.2 219,350.19 224.09,350.17 229.19,350.15 
		234.28,350.13 239.37,350.1 244.46,350.07 249.55,350.02 254.64,349.97 259.73,349.91 264.82,349.83 269.91,349.74 275,349.63 
		280.1,349.5 285.19,349.33 290.28,349.14 295.37,348.9 300.46,348.61 305.55,348.26 310.64,347.84 315.73,347.33 320.82,346.72 
		325.92,345.98 331.01,345.09 336.1,344.01 341.19,342.72 346.28,341.16 351.37,339.3 356.46,337.06 361.55,334.38 366.64,331.18 
		371.73,327.36 376.83,322.82 381.92,317.42 387.01,311.04 392.1,303.51 397.19,294.67 402.28,284.34 407.37,272.32 412.46,258.45 
		417.55,242.57 422.65,224.57 427.74,204.42 432.83,182.21 437.92,158.2 443.01,132.92 448.1,107.23 453.19,82.38 458.28,60.11 
		463.37,42.65 468.46,32.58 473.56,32.6 478.65,45 483.74,70.9 488.83,109.46 493.92,157.27 499.01,208.51 504.1,256.33 
		509.19,294.95 514.28,321.72 519.38,337.47 524.47,345.31 529.56,348.6 534.65,349.78 539.74,350.14 544.83,350.23 549.92,350.26 
		555.01,350.26 560.1,350.26 565.19,350.26 	"/>
	<g clip-path="url(#SVGID_2_)">
		<defs>
			<rect id="SVGID_7_" y="-200" width="600" height="600"/>
		</defs>
		<clipPath id="SVGID_8_">
			<use xlink:href="#SVGID_7_"  overflow="visible"/>
		</clipPath>
		<polyline clip-path="url(#SVGID_8_)" fill-rule="evenodd" clip-rule="evenodd" fill="#FFFFFF" points="64.06,78.05 178.88,78.05 
			178.88,32.69 64.06,32.69 		"/>
	</g>
	<polyline clip-path="url(#SVGID_2_)" fill="none" stroke="#FFFFFF" stroke-miterlimit="10" points="64.06,78.05 178.88,78.05 
		178.88,32.69 64.06,32.69 64.06,78.05 	"/>
	
		<line clip-path="url(#SVGID_2_)" fill="none" stroke="#009AFA" stroke-miterlimit="10" x1="70.06" y1="47.81" x2="106.06" y2="47.81"/>
	<g clip-path="url(#SVGID_2_)">
		<text transform="matrix(1 0 0 1 112.0601 52.3101)" font-family="'Helvetica'" font-size="13">Histogram</text>
	</g>
	
		<line clip-path="url(#SVGID_2_)" fill="none" stroke="#E36F47" stroke-miterlimit="10" x1="70.06" y1="62.93" x2="106.06" y2="62.93"/>
	<g clip-path="url(#SVGID_2_)">
		<text transform="matrix(1 0 0 1 112.0601 67.4302)" font-family="'Helvetica'" font-size="13">Curve fit</text>
	</g>
</g>
</svg>
