<?xml version="1.0" encoding="utf-8"?>
<!-- Generator: Adobe Illustrator 15.0.2, SVG Export Plug-In . SVG Version: 6.00 Build 0)  -->
<!DOCTYPE svg PUBLIC "-//W3C//DTD SVG 1.1//EN" "http://www.w3.org/Graphics/SVG/1.1/DTD/svg11.dtd">
<svg version="1.1" id="Layer_1" xmlns="http://www.w3.org/2000/svg" xmlns:xlink="http://www.w3.org/1999/xlink" x="0px" y="0px"
	 width="600px" height="400px" viewBox="0 0 600 400" enable-background="new 0 0 600 400" xml:space="preserve">
<g>
	<defs>
		<rect id="SVGID_1_" width="600" height="400"/>
	</defs>
	<clipPath id="SVGID_2_">
		<use xlink:href="#SVGID_1_"  overflow="visible"/>
	</clipPath>
	<g clip-path="url(#SVGID_2_)">
		<defs>
			<rect id="SVGID_3_" y="-200" width="600" height="600"/>
		</defs>
		<clipPath id="SVGID_4_">
			<use xlink:href="#SVGID_3_"  overflow="visible"/>
		</clipPath>
		<polyline clip-path="url(#SVGID_4_)" fill-rule="evenodd" clip-rule="evenodd" fill="#FFFFFF" points="0,400 600,400 600,0 0,0 		
			"/>
	</g>
	<g clip-path="url(#SVGID_2_)">
		<defs>
			<rect id="SVGID_5_" y="-200" width="600" height="600"/>
		</defs>
		<clipPath id="SVGID_6_">
			<use xlink:href="#SVGID_5_"  overflow="visible"/>
		</clipPath>
		<polyline clip-path="url(#SVGID_6_)" fill-rule="evenodd" clip-rule="evenodd" fill="#FFFFFF" points="62.79,384.25 
			580.31,384.25 580.31,11.81 62.79,11.81 		"/>
	</g>
	
		<line opacity="0.098" clip-path="url(#SVGID_2_)" fill="none" stroke="#000000" stroke-width="0.5" stroke-miterlimit="10" x1="62.79" y1="368.69" x2="580.31" y2="368.69"/>
	
		<line opacity="0.098" clip-path="url(#SVGID_2_)" fill="none" stroke="#000000" stroke-width="0.5" stroke-miterlimit="10" x1="62.79" y1="268.3" x2="580.31" y2="268.3"/>
	
		<line opacity="0.098" clip-path="url(#SVGID_2_)" fill="none" stroke="#000000" stroke-width="0.5" stroke-miterlimit="10" x1="62.79" y1="167.91" x2="580.31" y2="167.91"/>
	
		<line opacity="0.098" clip-path="url(#SVGID_2_)" fill="none" stroke="#000000" stroke-width="0.5" stroke-miterlimit="10" x1="62.79" y1="67.53" x2="580.31" y2="67.53"/>
	
		<line clip-path="url(#SVGID_2_)" fill="none" stroke="#000000" stroke-miterlimit="10" x1="62.79" y1="384.25" x2="580.31" y2="384.25"/>
	
		<line clip-path="url(#SVGID_2_)" fill="none" stroke="#000000" stroke-miterlimit="10" x1="62.79" y1="384.25" x2="62.79" y2="11.81"/>
	
		<line clip-path="url(#SVGID_2_)" fill="none" stroke="#000000" stroke-miterlimit="10" x1="62.79" y1="368.69" x2="70.55" y2="368.69"/>
	
		<line clip-path="url(#SVGID_2_)" fill="none" stroke="#000000" stroke-miterlimit="10" x1="62.79" y1="268.3" x2="70.55" y2="268.3"/>
	
		<line clip-path="url(#SVGID_2_)" fill="none" stroke="#000000" stroke-miterlimit="10" x1="62.79" y1="167.91" x2="70.55" y2="167.91"/>
	
		<line clip-path="url(#SVGID_2_)" fill="none" stroke="#000000" stroke-miterlimit="10" x1="62.79" y1="67.53" x2="70.55" y2="67.53"/>
	<g clip-path="url(#SVGID_2_)">
		<text transform="matrix(1 0 0 1 32.79 373.1904)" font-family="'Helvetica'" font-size="13">65.8</text>
	</g>
	<g clip-path="url(#SVGID_2_)">
		<text transform="matrix(1 0 0 1 32.79 272.7998)" font-family="'Helvetica'" font-size="13">66.0</text>
	</g>
	<g clip-path="url(#SVGID_2_)">
		<text transform="matrix(1 0 0 1 32.79 172.4102)" font-family="'Helvetica'" font-size="13">66.2</text>
	</g>
	<g clip-path="url(#SVGID_2_)">
		<text transform="matrix(1 0 0 1 32.79 72.0298)" font-family="'Helvetica'" font-size="13">66.4</text>
	</g>
	<g clip-path="url(#SVGID_2_)">
		<text transform="matrix(-6.123234e-17 -1 1 -6.123234e-17 14.4004 232.0293)" font-family="'Helvetica'" font-size="17">Age (Ma)</text>
	</g>
	<path clip-path="url(#SVGID_2_)" fill-rule="evenodd" clip-rule="evenodd" d="M77.43,306.47c-2.21,0-4,1.79-4,4s1.79,4,4,4
		s4-1.79,4-4S79.64,306.47,77.43,306.47"/>
	<path clip-path="url(#SVGID_2_)" fill-rule="evenodd" clip-rule="evenodd" fill="#009AFA" d="M77.43,307.47c-1.65,0-3,1.34-3,3
		c0,1.65,1.35,3,3,3c1.66,0,3-1.35,3-3C80.43,308.81,79.09,307.47,77.43,307.47"/>
	<path clip-path="url(#SVGID_2_)" fill-rule="evenodd" clip-rule="evenodd" d="M109.98,304.46c-2.21,0-4,1.79-4,4s1.79,4,4,4
		s4-1.79,4-4S112.19,304.46,109.98,304.46"/>
	<path clip-path="url(#SVGID_2_)" fill-rule="evenodd" clip-rule="evenodd" fill="#009AFA" d="M109.98,305.46c-1.65,0-3,1.34-3,3
		s1.35,3,3,3c1.66,0,3-1.34,3-3S111.64,305.46,109.98,305.46"/>
	<path clip-path="url(#SVGID_2_)" fill-rule="evenodd" clip-rule="evenodd" d="M142.53,282.88c-2.21,0-4,1.79-4,4c0,2.2,1.79,4,4,4
		c2.21,0,4-1.8,4-4C146.53,284.67,144.74,282.88,142.53,282.88"/>
	<path clip-path="url(#SVGID_2_)" fill-rule="evenodd" clip-rule="evenodd" fill="#009AFA" d="M142.53,283.88c-1.65,0-3,1.34-3,3
		c0,1.65,1.35,3,3,3c1.66,0,3-1.35,3-3C145.53,285.22,144.19,283.88,142.53,283.88"/>
	<path clip-path="url(#SVGID_2_)" fill-rule="evenodd" clip-rule="evenodd" d="M175.08,278.86c-2.21,0-4,1.79-4,4s1.79,4,4,4
		s4-1.79,4-4S177.29,278.86,175.08,278.86"/>
	<path clip-path="url(#SVGID_2_)" fill-rule="evenodd" clip-rule="evenodd" fill="#009AFA" d="M175.08,279.86c-1.66,0-3,1.34-3,3
		c0,1.659,1.34,3,3,3s3-1.341,3-3C178.08,281.2,176.74,279.86,175.08,279.86"/>
	<path clip-path="url(#SVGID_2_)" fill-rule="evenodd" clip-rule="evenodd" d="M207.63,276.85c-2.21,0-4,1.79-4,4s1.79,4,4,4
		s4-1.79,4-4S209.84,276.85,207.63,276.85"/>
	<path clip-path="url(#SVGID_2_)" fill-rule="evenodd" clip-rule="evenodd" fill="#009AFA" d="M207.63,277.85c-1.66,0-3,1.351-3,3
		c0,1.66,1.34,3,3,3c1.66,0,3-1.34,3-3C210.63,279.2,209.29,277.85,207.63,277.85"/>
	<path clip-path="url(#SVGID_2_)" fill-rule="evenodd" clip-rule="evenodd" d="M240.18,275.85c-2.21,0-4,1.79-4,4s1.79,4,4,4
		s4-1.79,4-4S242.39,275.85,240.18,275.85"/>
	<path clip-path="url(#SVGID_2_)" fill-rule="evenodd" clip-rule="evenodd" fill="#009AFA" d="M240.18,276.85c-1.66,0-3,1.341-3,3
		c0,1.65,1.34,3,3,3c1.66,0,3-1.35,3-3C243.18,278.19,241.84,276.85,240.18,276.85"/>
	<path clip-path="url(#SVGID_2_)" fill-rule="evenodd" clip-rule="evenodd" d="M272.73,274.34c-2.21,0-4,1.79-4,4s1.79,4,4,4
		s4-1.79,4-4S274.94,274.34,272.73,274.34"/>
	<path clip-path="url(#SVGID_2_)" fill-rule="evenodd" clip-rule="evenodd" fill="#009AFA" d="M272.73,275.34c-1.66,0-3,1.351-3,3
		c0,1.66,1.34,3,3,3c1.65,0,3-1.34,3-3C275.73,276.69,274.38,275.34,272.73,275.34"/>
	<path clip-path="url(#SVGID_2_)" fill-rule="evenodd" clip-rule="evenodd" d="M305.28,273.34c-2.21,0-4,1.79-4,4s1.79,4,4,4
		s4-1.79,4-4S307.49,273.34,305.28,273.34"/>
	<path clip-path="url(#SVGID_2_)" fill-rule="evenodd" clip-rule="evenodd" fill="#009AFA" d="M305.28,274.34c-1.66,0-3,1.34-3,3
		s1.34,3,3,3c1.649,0,3-1.34,3-3S306.93,274.34,305.28,274.34"/>
	<path clip-path="url(#SVGID_2_)" fill-rule="evenodd" clip-rule="evenodd" d="M337.83,262.8c-2.21,0-4,1.79-4,4s1.79,4,4,4
		c2.2,0,4-1.79,4-4S340.03,262.8,337.83,262.8"/>
	<path clip-path="url(#SVGID_2_)" fill-rule="evenodd" clip-rule="evenodd" fill="#009AFA" d="M337.83,263.8c-1.66,0-3,1.34-3,3
		c0,1.65,1.34,3,3,3c1.65,0,3-1.35,3-3C340.83,265.14,339.48,263.8,337.83,263.8"/>
	<path clip-path="url(#SVGID_2_)" fill-rule="evenodd" clip-rule="evenodd" d="M370.37,256.27c-2.2,0-4,1.79-4,4c0,2.211,1.8,4,4,4
		c2.21,0,4-1.789,4-4C374.37,258.06,372.58,256.27,370.37,256.27"/>
	<path clip-path="url(#SVGID_2_)" fill-rule="evenodd" clip-rule="evenodd" fill="#009AFA" d="M370.37,257.27c-1.65,0-3,1.351-3,3
		c0,1.66,1.35,3,3,3c1.66,0,3-1.34,3-3C373.37,258.62,372.03,257.27,370.37,257.27"/>
	<path clip-path="url(#SVGID_2_)" fill-rule="evenodd" clip-rule="evenodd" d="M402.92,249.25c-2.21,0-4,1.79-4,4c0,2.2,1.79,4,4,4
		s4-1.8,4-4C406.92,251.04,405.13,249.25,402.92,249.25"/>
	<path clip-path="url(#SVGID_2_)" fill-rule="evenodd" clip-rule="evenodd" fill="#009AFA" d="M402.92,250.25c-1.65,0-3,1.34-3,3
		c0,1.65,1.35,3,3,3c1.66,0,3-1.35,3-3C405.92,251.59,404.58,250.25,402.92,250.25"/>
	<path clip-path="url(#SVGID_2_)" fill-rule="evenodd" clip-rule="evenodd" d="M435.47,244.23c-2.21,0-4,1.789-4,4
		c0,2.199,1.79,4,4,4s4-1.801,4-4C439.47,246.02,437.68,244.23,435.47,244.23"/>
	<path clip-path="url(#SVGID_2_)" fill-rule="evenodd" clip-rule="evenodd" fill="#009AFA" d="M435.47,245.23c-1.649,0-3,1.34-3,3
		c0,1.649,1.351,3,3,3c1.66,0,3-1.351,3-3C438.47,246.57,437.13,245.23,435.47,245.23"/>
	<path clip-path="url(#SVGID_2_)" fill-rule="evenodd" clip-rule="evenodd" d="M468.02,219.13c-2.21,0-4,1.79-4,4s1.79,4,4,4
		c2.211,0,4-1.79,4-4S470.23,219.13,468.02,219.13"/>
	<path clip-path="url(#SVGID_2_)" fill-rule="evenodd" clip-rule="evenodd" fill="#009AFA" d="M468.02,220.13c-1.659,0-3,1.34-3,3
		s1.341,3,3,3c1.66,0,3-1.34,3-3S469.68,220.13,468.02,220.13"/>
	<path clip-path="url(#SVGID_2_)" fill-rule="evenodd" clip-rule="evenodd" d="M500.57,208.09c-2.21,0-4,1.79-4,4s1.79,4,4,4
		s4-1.79,4-4S502.78,208.09,500.57,208.09"/>
	<path clip-path="url(#SVGID_2_)" fill-rule="evenodd" clip-rule="evenodd" fill="#009AFA" d="M500.57,209.09c-1.66,0-3,1.34-3,3
		c0,1.65,1.34,3,3,3s3-1.35,3-3C503.57,210.43,502.23,209.09,500.57,209.09"/>
	<path clip-path="url(#SVGID_2_)" fill-rule="evenodd" clip-rule="evenodd" d="M533.12,147.85c-2.21,0-4,1.79-4,4s1.79,4,4,4
		s4-1.79,4-4S535.33,147.85,533.12,147.85"/>
	<path clip-path="url(#SVGID_2_)" fill-rule="evenodd" clip-rule="evenodd" fill="#009AFA" d="M533.12,148.85c-1.66,0-3,1.35-3,3
		c0,1.66,1.34,3,3,3s3-1.34,3-3C536.12,150.2,534.78,148.85,533.12,148.85"/>
	<path clip-path="url(#SVGID_2_)" fill-rule="evenodd" clip-rule="evenodd" d="M565.67,143.84c-2.21,0-4,1.79-4,4s1.79,4,4,4
		s4-1.79,4-4S567.88,143.84,565.67,143.84"/>
	<path clip-path="url(#SVGID_2_)" fill-rule="evenodd" clip-rule="evenodd" fill="#009AFA" d="M565.67,144.84c-1.66,0-3,1.34-3,3
		c0,1.65,1.34,3,3,3c1.65,0,3-1.35,3-3C568.67,146.18,567.32,144.84,565.67,144.84"/>
	
		<line clip-path="url(#SVGID_2_)" fill="none" stroke="#009AFA" stroke-miterlimit="10" x1="77.43" y1="354.64" x2="77.43" y2="266.3"/>
	
		<line clip-path="url(#SVGID_2_)" fill="none" stroke="#009AFA" stroke-miterlimit="10" x1="109.98" y1="368.69" x2="109.98" y2="248.23"/>
	
		<line clip-path="url(#SVGID_2_)" fill="none" stroke="#009AFA" stroke-miterlimit="10" x1="142.53" y1="324.02" x2="142.53" y2="249.73"/>
	
		<line clip-path="url(#SVGID_2_)" fill="none" stroke="#009AFA" stroke-miterlimit="10" x1="175.08" y1="324.02" x2="175.08" y2="241.7"/>
	
		<line clip-path="url(#SVGID_2_)" fill="none" stroke="#009AFA" stroke-miterlimit="10" x1="207.63" y1="313.98" x2="207.63" y2="247.72"/>
	
		<line clip-path="url(#SVGID_2_)" fill="none" stroke="#009AFA" stroke-miterlimit="10" x1="240.18" y1="300.93" x2="240.18" y2="258.77"/>
	
		<line clip-path="url(#SVGID_2_)" fill="none" stroke="#009AFA" stroke-miterlimit="10" x1="272.73" y1="373.71" x2="272.73" y2="182.97"/>
	
		<line clip-path="url(#SVGID_2_)" fill="none" stroke="#009AFA" stroke-miterlimit="10" x1="305.28" y1="312.98" x2="305.28" y2="241.7"/>
	
		<line clip-path="url(#SVGID_2_)" fill="none" stroke="#009AFA" stroke-miterlimit="10" x1="337.83" y1="285.87" x2="337.83" y2="247.72"/>
	
		<line clip-path="url(#SVGID_2_)" fill="none" stroke="#009AFA" stroke-miterlimit="10" x1="370.37" y1="300.43" x2="370.37" y2="220.12"/>
	
		<line clip-path="url(#SVGID_2_)" fill="none" stroke="#009AFA" stroke-miterlimit="10" x1="402.92" y1="313.48" x2="402.92" y2="193.01"/>
	
		<line clip-path="url(#SVGID_2_)" fill="none" stroke="#009AFA" stroke-miterlimit="10" x1="435.47" y1="338.58" x2="435.47" y2="157.88"/>
	
		<line clip-path="url(#SVGID_2_)" fill="none" stroke="#009AFA" stroke-miterlimit="10" x1="468.02" y1="273.32" x2="468.02" y2="172.93"/>
	
		<line clip-path="url(#SVGID_2_)" fill="none" stroke="#009AFA" stroke-miterlimit="10" x1="500.57" y1="254.75" x2="500.57" y2="169.42"/>
	
		<line clip-path="url(#SVGID_2_)" fill="none" stroke="#009AFA" stroke-miterlimit="10" x1="533.12" y1="174.94" x2="533.12" y2="128.76"/>
	
		<line clip-path="url(#SVGID_2_)" fill="none" stroke="#009AFA" stroke-miterlimit="10" x1="565.67" y1="273.32" x2="565.67" y2="22.35"/>
	
		<line clip-path="url(#SVGID_2_)" fill="none" stroke="#000000" stroke-width="0.75" stroke-miterlimit="10" x1="82.23" y1="354.64" x2="72.64" y2="354.64"/>
	
		<line clip-path="url(#SVGID_2_)" fill="none" stroke="#000000" stroke-width="0.75" stroke-miterlimit="10" x1="82.23" y1="266.3" x2="72.64" y2="266.3"/>
	
		<line clip-path="url(#SVGID_2_)" fill="none" stroke="#000000" stroke-width="0.75" stroke-miterlimit="10" x1="114.77" y1="368.69" x2="105.19" y2="368.69"/>
	
		<line clip-path="url(#SVGID_2_)" fill="none" stroke="#000000" stroke-width="0.75" stroke-miterlimit="10" x1="114.77" y1="248.23" x2="105.19" y2="248.23"/>
	
		<line clip-path="url(#SVGID_2_)" fill="none" stroke="#000000" stroke-width="0.75" stroke-miterlimit="10" x1="147.32" y1="324.02" x2="137.74" y2="324.02"/>
	
		<line clip-path="url(#SVGID_2_)" fill="none" stroke="#000000" stroke-width="0.75" stroke-miterlimit="10" x1="147.32" y1="249.73" x2="137.74" y2="249.73"/>
	
		<line clip-path="url(#SVGID_2_)" fill="none" stroke="#000000" stroke-width="0.75" stroke-miterlimit="10" x1="179.87" y1="324.02" x2="170.29" y2="324.02"/>
	
		<line clip-path="url(#SVGID_2_)" fill="none" stroke="#000000" stroke-width="0.75" stroke-miterlimit="10" x1="179.87" y1="241.7" x2="170.29" y2="241.7"/>
	
		<line clip-path="url(#SVGID_2_)" fill="none" stroke="#000000" stroke-width="0.75" stroke-miterlimit="10" x1="212.42" y1="313.98" x2="202.84" y2="313.98"/>
	
		<line clip-path="url(#SVGID_2_)" fill="none" stroke="#000000" stroke-width="0.75" stroke-miterlimit="10" x1="212.42" y1="247.72" x2="202.84" y2="247.72"/>
	
		<line clip-path="url(#SVGID_2_)" fill="none" stroke="#000000" stroke-width="0.75" stroke-miterlimit="10" x1="244.97" y1="300.93" x2="235.39" y2="300.93"/>
	
		<line clip-path="url(#SVGID_2_)" fill="none" stroke="#000000" stroke-width="0.75" stroke-miterlimit="10" x1="244.97" y1="258.77" x2="235.39" y2="258.77"/>
	
		<line clip-path="url(#SVGID_2_)" fill="none" stroke="#000000" stroke-width="0.75" stroke-miterlimit="10" x1="277.52" y1="373.71" x2="267.94" y2="373.71"/>
	
		<line clip-path="url(#SVGID_2_)" fill="none" stroke="#000000" stroke-width="0.75" stroke-miterlimit="10" x1="277.52" y1="182.97" x2="267.94" y2="182.97"/>
	
		<line clip-path="url(#SVGID_2_)" fill="none" stroke="#000000" stroke-width="0.75" stroke-miterlimit="10" x1="310.07" y1="312.98" x2="300.48" y2="312.98"/>
	
		<line clip-path="url(#SVGID_2_)" fill="none" stroke="#000000" stroke-width="0.75" stroke-miterlimit="10" x1="310.07" y1="241.7" x2="300.48" y2="241.7"/>
	
		<line clip-path="url(#SVGID_2_)" fill="none" stroke="#000000" stroke-width="0.75" stroke-miterlimit="10" x1="342.62" y1="285.87" x2="333.03" y2="285.87"/>
	
		<line clip-path="url(#SVGID_2_)" fill="none" stroke="#000000" stroke-width="0.75" stroke-miterlimit="10" x1="342.62" y1="247.72" x2="333.03" y2="247.72"/>
	
		<line clip-path="url(#SVGID_2_)" fill="none" stroke="#000000" stroke-width="0.75" stroke-miterlimit="10" x1="375.17" y1="300.43" x2="365.58" y2="300.43"/>
	
		<line clip-path="url(#SVGID_2_)" fill="none" stroke="#000000" stroke-width="0.75" stroke-miterlimit="10" x1="375.17" y1="220.12" x2="365.58" y2="220.12"/>
	
		<line clip-path="url(#SVGID_2_)" fill="none" stroke="#000000" stroke-width="0.75" stroke-miterlimit="10" x1="407.72" y1="313.48" x2="398.13" y2="313.48"/>
	
		<line clip-path="url(#SVGID_2_)" fill="none" stroke="#000000" stroke-width="0.75" stroke-miterlimit="10" x1="407.72" y1="193.01" x2="398.13" y2="193.01"/>
	
		<line clip-path="url(#SVGID_2_)" fill="none" stroke="#000000" stroke-width="0.75" stroke-miterlimit="10" x1="440.26" y1="338.58" x2="430.68" y2="338.58"/>
	
		<line clip-path="url(#SVGID_2_)" fill="none" stroke="#000000" stroke-width="0.75" stroke-miterlimit="10" x1="440.26" y1="157.88" x2="430.68" y2="157.88"/>
	
		<line clip-path="url(#SVGID_2_)" fill="none" stroke="#000000" stroke-width="0.75" stroke-miterlimit="10" x1="472.81" y1="273.32" x2="463.23" y2="273.32"/>
	
		<line clip-path="url(#SVGID_2_)" fill="none" stroke="#000000" stroke-width="0.75" stroke-miterlimit="10" x1="472.81" y1="172.93" x2="463.23" y2="172.93"/>
	
		<line clip-path="url(#SVGID_2_)" fill="none" stroke="#000000" stroke-width="0.75" stroke-miterlimit="10" x1="505.36" y1="254.75" x2="495.78" y2="254.75"/>
	
		<line clip-path="url(#SVGID_2_)" fill="none" stroke="#000000" stroke-width="0.75" stroke-miterlimit="10" x1="505.36" y1="169.42" x2="495.78" y2="169.42"/>
	
		<line clip-path="url(#SVGID_2_)" fill="none" stroke="#000000" stroke-width="0.75" stroke-miterlimit="10" x1="537.91" y1="174.94" x2="528.33" y2="174.94"/>
	
		<line clip-path="url(#SVGID_2_)" fill="none" stroke="#000000" stroke-width="0.75" stroke-miterlimit="10" x1="537.91" y1="128.76" x2="528.33" y2="128.76"/>
	
		<line clip-path="url(#SVGID_2_)" fill="none" stroke="#000000" stroke-width="0.75" stroke-miterlimit="10" x1="570.46" y1="273.32" x2="560.88" y2="273.32"/>
	
		<line clip-path="url(#SVGID_2_)" fill="none" stroke="#000000" stroke-width="0.75" stroke-miterlimit="10" x1="570.46" y1="22.35" x2="560.88" y2="22.35"/>
	<g clip-path="url(#SVGID_2_)">
		<defs>
			<rect id="SVGID_7_" x="62.79" y="11.81" width="517.52" height="372.44"/>
		</defs>
		<clipPath id="SVGID_8_">
			<use xlink:href="#SVGID_7_"  overflow="visible"/>
		</clipPath>
		<polyline opacity="0.6" clip-path="url(#SVGID_8_)" fill-rule="evenodd" clip-rule="evenodd" fill="#E36F47" points="77.43,306.5 
			109.98,306.5 142.53,306.5 175.08,306.5 207.63,306.5 240.18,306.5 272.73,306.5 305.28,306.5 337.83,306.5 370.37,306.5 
			402.92,306.5 435.47,306.5 468.02,306.5 500.57,306.5 533.12,306.5 565.67,306.5 565.67,265.5 533.12,265.5 500.57,265.5 
			468.02,265.5 435.47,265.5 402.92,265.5 370.37,265.5 337.83,265.5 305.28,265.5 272.73,265.5 240.18,265.5 207.63,265.5 
			175.08,265.5 142.53,265.5 109.98,265.5 77.43,265.5 		"/>
	</g>
	<polyline opacity="0" clip-path="url(#SVGID_2_)" fill="none" stroke="#E36F47" stroke-miterlimit="10" points="77.43,306.5 
		109.98,306.5 142.53,306.5 175.08,306.5 207.63,306.5 240.18,306.5 272.73,306.5 305.28,306.5 337.83,306.5 370.37,306.5 
		402.92,306.5 435.47,306.5 468.02,306.5 500.57,306.5 533.12,306.5 565.67,306.5 	"/>
	<polyline clip-path="url(#SVGID_2_)" fill="none" stroke="#000000" stroke-miterlimit="10" stroke-dasharray="1,2" points="
		77.43,281.12 109.98,281.12 142.53,281.12 175.08,281.12 207.63,281.12 240.18,281.12 272.73,281.12 305.28,281.12 337.83,281.12 
		370.37,281.12 402.92,281.12 435.47,281.12 468.02,281.12 500.57,281.12 533.12,281.12 565.67,281.12 	"/>
	<g clip-path="url(#SVGID_2_)">
		<defs>
			<rect id="SVGID_9_" y="-200" width="600" height="600"/>
		</defs>
		<clipPath id="SVGID_10_">
			<use xlink:href="#SVGID_9_"  overflow="visible"/>
		</clipPath>
		<polyline clip-path="url(#SVGID_10_)" fill-rule="evenodd" clip-rule="evenodd" fill="#FFFFFF" points="80.79,78.05 247.13,78.05 
			247.13,32.69 80.79,32.69 		"/>
	</g>
	<polyline clip-path="url(#SVGID_2_)" fill="none" stroke="#FFFFFF" stroke-miterlimit="10" points="80.79,78.05 247.13,78.05 
		247.13,32.69 80.79,32.69 80.79,78.05 	"/>
	<path clip-path="url(#SVGID_2_)" fill-rule="evenodd" clip-rule="evenodd" d="M107.79,41.81c-3.32,0-6,2.69-6,6s2.68,6,6,6
		c3.31,0,6-2.69,6-6S111.1,41.81,107.79,41.81"/>
	<path clip-path="url(#SVGID_2_)" fill-rule="evenodd" clip-rule="evenodd" fill="#009AFA" d="M107.79,42.81c-2.76,0-5,2.24-5,5
		c0,2.76,2.24,5,5,5c2.76,0,5-2.24,5-5C112.79,45.05,110.55,42.81,107.79,42.81"/>
	<g clip-path="url(#SVGID_2_)">
		<text transform="matrix(1 0 0 1 128.79 52.3101)" font-family="'Helvetica'" font-size="13">Observed ages</text>
	</g>
	<g clip-path="url(#SVGID_2_)">
		<defs>
			<rect id="SVGID_11_" y="-200" width="600" height="600"/>
		</defs>
		<clipPath id="SVGID_12_">
			<use xlink:href="#SVGID_11_"  overflow="visible"/>
		</clipPath>
		<polyline opacity="0.6" clip-path="url(#SVGID_12_)" fill-rule="evenodd" clip-rule="evenodd" fill="#E36F47" points="
			86.79,68.98 122.79,68.98 122.79,56.88 86.79,56.88 86.79,68.98 		"/>
	</g>
	
		<line opacity="0" clip-path="url(#SVGID_2_)" fill="none" stroke="#E36F47" stroke-miterlimit="10" x1="86.79" y1="56.88" x2="122.79" y2="56.88"/>
	<g clip-path="url(#SVGID_2_)">
		<text transform="matrix(1 0 0 1 128.79 67.4302)" font-family="'Helvetica'" font-size="13">Model interpretation</text>
	</g>
</g>
</svg>
